<?xml version="1.0" encoding="utf-8"?>
<!-- Generator: Adobe Illustrator 28.2.0, SVG Export Plug-In . SVG Version: 6.00 Build 0)  -->
<svg version="1.1"
	 id="svg1" xmlns:sodipodi="http://sodipodi.sourceforge.net/DTD/sodipodi-0.dtd" xmlns:svg="http://www.w3.org/2000/svg" xmlns:inkscape="http://www.inkscape.org/namespaces/inkscape"
	 xmlns="http://www.w3.org/2000/svg" xmlns:xlink="http://www.w3.org/1999/xlink" x="0px" y="0px" viewBox="0 0 595.3 370.2"
	 style="enable-background:new 0 0 595.3 370.2;" xml:space="preserve">
<style type="text/css">
	.st0{fill:#FFFFFF;}
</style>
<sodipodi:namedview  bordercolor="#000000" borderopacity="0.25" id="namedview1" inkscape:deskcolor="#d1d1d1" inkscape:document-units="mm" inkscape:pagecheckerboard="0" inkscape:pageopacity="0.0" inkscape:showpageshadow="2" pagecolor="#ffffff">
	</sodipodi:namedview>
<g id="layer1" inkscape:groupmode="layer" inkscape:label="雓蔬 1">
	<g id="XMLID_00000131348021527740383030000003330424443922896551_">
		<g>
			<path d="M589.6,170.8c5.2,15.7,7.5,32.7,3.8,48.9c-2.6,12.3-5.4,24.1-11.9,34.9c-2.8,5.5-8.7,11.5-8.7,17.6
				c0,6.2,5.6,10.9,9.1,15.8c1.5,2,3.1,4.2,4.4,6.2c9.6,14.7,10.5,34.2,2.3,49.9c-9.4,19.1-33.2,29.5-53.5,24.7
				c-8.8-2-18.2-6.8-24.8-12.9c-4.7-4.3-8.4-9.3-12.9-13.8c-22.4-23.7-51.3-38.6-82-50.1c-68.1-24.9-168.6-25.3-237.2,0.6
				c-21.5,8.2-42.8,18.2-60.8,31.8c-11.3,8.5-21.5,19.6-31.3,29.9c-14.2,14.9-37.3,20.3-56.3,11.7c-21.7-9.1-33.4-34.7-27.4-57
				c1.5-6,4.1-11.7,7.5-16.7c3.1-5,8.3-9.8,11.1-14.9v-0.2c4.4-8.6-4.5-16.3-8-23.5c-4.6-7.8-7.1-16.2-9.3-25.2
				C1.4,219.4-0.1,211,0,202.1c-0.1-7.9,1.2-16,3.1-23.9c2-8.1,4-16.1,8-23c4.3-7.6,9.4-14.8,14.9-21.5
				c27.2-33.6,72.4-44.8,113.4-33c3,0.8,6.1,1.8,9,3c3.4,1.3,6.4,2.7,8.7,2.5c4.8-0.2,5.8-6,7-9.7c4.7-16.4,13.4-30.7,23.8-44
				c13.5-17.5,33.4-32,53-40.8c7.7-3.3,15.5-5.3,23.7-7.4c8.7-2.1,17.2-3.9,26-4.3c19.4-1.4,38.7,3.3,57.1,9.2
				c15.8,5.4,33.1,17.1,46.2,28.8c10.5,9.7,18.9,21.3,26.5,33.8c4.5,7.8,8,15.9,10.6,24.5c1.3,3.6,2,9.2,6.5,10
				c2.8,0.4,6.9-2,11.5-3.5C507.2,81.7,571.7,111.5,589.6,170.8z M560.8,322.6c0.9-10.8-9.7-19.7-16.4-27.1
				c-26-26.7-59.9-45.9-93.9-60.1c-47.2-19.8-97.7-27.8-148.4-28.2c-34.5-0.5-67.8,2.5-101.7,9.9c-51.9,12.1-108.5,37-147,74.3
				c-4.7,4.6-9.6,9.8-13.8,14.8c-2.6,3.2-5,6.4-6.1,10.4c-3.2,11.4,8.2,22.9,19.4,19.4l0.4-0.1c7.1-2.2,11.4-8.4,16.3-13.6
				c8.7-9.4,18.2-18.1,28.2-25.7c76.3-55.3,183.9-66.5,275-50.5c41.4,7.7,82.3,22,117.2,45.7c13.2,9,25.9,20.4,36.6,32.4
				c4.4,4.8,8.9,10.3,15.5,11.9C550.8,338.5,560.2,331.5,560.8,322.6z M555,233.9c10.7-23.6,8.2-53.1-7.1-74.2
				c-24-34.3-71.1-41.4-104.3-16.3c-8.8,6.8-19.4,18.5-31,10.1c-7.4-5.3-7.7-15.8-8.6-24.4c-1.4-12-3.8-21.5-8.8-32.5
				c-10.9-25.3-31.7-46-56.8-56.6c-37-16.4-82.1-8.6-112.1,18.3c-19.2,16.6-32,40.6-35.8,65.7c-1.8,9.9-0.3,23-9.3,29.4
				c-12.5,8.8-23.8-5.3-33.5-11.9c-9.3-6.4-18.7-10.3-29.7-12.1c-28.6-5-58.7,8.8-73.7,33.6c-13.3,20.1-14.9,45.9-6.4,68
				c1.7,4.1,3.5,8,5.8,11.6c4,6.7,9.2,7.5,15.3,3.1c63.1-46.5,144.8-68.6,222.6-70.9c69.4-2.1,139.9,10,202.7,40.2
				c11.7,5.7,23.1,12.2,34.1,19.1c4.2,2.7,7.9,5.2,12.2,8.3c4.6,3.2,10.9,8.8,16.3,4.7l0.1-0.2C550.8,243.3,552.8,238.6,555,233.9z"
				/>
			<path class="st0" d="M544.4,295.5c6.7,7.4,17.3,16.3,16.4,27.1c-0.6,8.9-10,15.9-18.7,13.5c-6.6-1.6-11.1-7.1-15.5-11.9
				c-10.7-12-23.4-23.4-36.6-32.4c-34.9-23.7-75.8-38-117.2-45.7c-91.1-16-198.7-4.8-275,50.5c-10,7.6-19.5,16.3-28.2,25.7
				c-4.9,5.2-9.2,11.4-16.3,13.6l-0.4,0.1c-11.2,3.5-22.6-8-19.4-19.4c1.1-4,3.5-7.2,6.1-10.4c4.2-5,9.1-10.2,13.8-14.8
				c38.5-37.3,95.1-62.2,147-74.3c33.9-7.4,67.2-10.4,101.7-9.9c50.7,0.4,101.2,8.4,148.4,28.2C484.5,249.6,518.4,268.8,544.4,295.5
				z"/>
			<path class="st0" d="M547.9,159.7c15.3,21.1,17.8,50.6,7.1,74.2c-2.2,4.7-4.2,9.4-8,13l-0.1,0.2c-5.4,4.1-11.7-1.5-16.3-4.7
				c-4.3-3.1-8-5.6-12.2-8.3c-11-6.9-22.4-13.4-34.1-19.1c-62.8-30.2-133.3-42.3-202.7-40.2c-77.8,2.3-159.5,24.4-222.6,70.9
				c-6.1,4.4-11.3,3.6-15.3-3.1c-2.3-3.6-4.1-7.5-5.8-11.6c-8.5-22.1-6.9-47.9,6.4-68c15-24.8,45.1-38.6,73.7-33.6
				c11,1.8,20.4,5.7,29.7,12.1c9.7,6.6,21,20.7,33.5,11.9c9-6.4,7.5-19.5,9.3-29.4c3.8-25.1,16.6-49.1,35.8-65.7
				c30-26.9,75.1-34.7,112.1-18.3c25.1,10.6,45.9,31.3,56.8,56.6c5,11,7.4,20.5,8.8,32.5c0.9,8.6,1.2,19.1,8.6,24.4
				c11.6,8.4,22.2-3.3,31-10.1C476.8,118.3,523.9,125.4,547.9,159.7z"/>
		</g>
		<g>
		</g>
	</g>
</g>
</svg>
