<?xml version="1.0" encoding="UTF-8"?>
<svg id="svg2" xmlns="http://www.w3.org/2000/svg" version="1.1" xmlns:cc="http://creativecommons.org/ns#" xmlns:dc="http://purl.org/dc/elements/1.1/" xmlns:rdf="http://www.w3.org/1999/02/22-rdf-syntax-ns#" xmlns:svg="http://www.w3.org/2000/svg" viewBox="0 0 880.1 543.8">
  <!-- Generator: Adobe Illustrator 29.1.0, SVG Export Plug-In . SVG Version: 2.1.0 Build 142)  -->
  <defs>
    <style>
      .st0 {
        fill: #231815;
        isolation: isolate;
      }
    </style>
  </defs>
  <g id="g12">
    <path id="path2" d="M469.7,61c-.8.5-1.1.9-1.6,2.2-.5,5.2.1,16.3,3.2,19.7,4.2,4.7,5.3,5.8,6.5,6.8,1.6,1.3,2.2,2,2.6,3.2,6,20.1,6.2,42.9,6.5,59.4,0,1.4-.3,1.9-2.1,4-2.5,2.8-3.2,3.2-7.2,3.6-1.3.1-2.9.4-3.5.6s-1.9.7-2.9,1c-1.8.6-4.8,1.5-7.3,2-.7.1-1.9.5-2.7.8-.8.3-2.6.9-4.1,1.4-5.6,1.5-11.6,3-16.4,4.2-1.4.3-3,1.4-4.2.9-1.4-.3-3.6-1.2-4.8-.5-.7.4-.8,1.1-.5,2.7.3,1.9.7,2.8,1.5,3.6,1,1.1,2.1,1.5,4,1.5,7.6,2,13.8,1.8,20.7-.2,5-.9,9.8-3.6,14-5.5,1.4-.6,2.8-1.2,3.3-1.4,1.1-.5,4-1.4,4.7-1.4s.8-.1,1.3-1c.4-.8,1.1-1.3,1.8-1.3,1.4,0,3.4,3.3,4.3,7.3.5,2,.5,3.3.2,4.4.6,7.6-1.2,12-3.2,18.5-1.6,4.9-5.5,7.4-8.7,7.3-4.2-.3-7.2,2.9-10.9,4.6-.5.2-1.3.4-1.8.4s-1.5.2-2.1.4c-2,.6-3,.5-4.1-.7-.8-.9-1.1-1.7-2.1-5.8-1.1-4.7-1.3-5.4-2.6-8.4-.6-1.4-1.3-3.1-1.5-3.8-.7-2-2-3.4-3.9-4.1-.4-.1-2-.4-3.7-.5-2.6-.3-3.3-.4-4.5-1-3.5-1.5-5.3-2.1-6.9-2.2-4-.3-5.1,1.8-4.4,7.4.2,1.2.2,1.7,0,2.3-.3,1.2-.2,1.8,1,5.5.6,2,1.6,5.6,2.2,7.9,2.2,9,5,17.1,7.6,24.7,2.4,7,3.5,9.4,5.3,10.8.4.3,1,.9,1.3,1.2,2.4,5.1,5,10.4,7,15.4,1.3,3.3,2.5,4.5,4.9,4.8,1.8.2,3.6-.6,4.8-2.2.3-.4,1.1-1.2,1.9-1.8.8-.6,1.5-1.3,1.6-1.6.4-.8.5-1.9.2-3-.3-1.3-.8-1.8-1.8-2-.9-.2-1.5-.6-2.7-1.7-2.8-6.5-2.9-27.1-1.5-29.3,2.4-3.6,3.6-4.5,5.4-4.2,5,1,7.6-3.7,11.2-3.7s3.5,0,4.6-.2c2.3-.2,4,0,5,.7,1.1.7,1.6,1.6,2.3,4.2.4,1.3,1,3.4,1.5,4.6,1.1,2.7,1.3,3.9,1.2,6.5-.2,4-.5,5.9-1.4,8.6-1.7,5-1.8,5.2-3.7,7.6-2.5,3.2-3.2,3.6-6.9,3.7-3.5,0-7.5.8-7.5,5.3s.8,3.3,2.3,4.2c1,.6,1.5.5,3.1-.7,1.5-1.1,5.2-2.9,6.9-3.3,1.6-.4,3.4-.2,4.3.6,1.1.9,2.4,3.8,3,6.7,1,12.9.7,28.3.9,41.5,0,2.6.2,5.5.3,6.5.5,20.5-.2,41.1-.2,62.7s0,18.2,1.1,19.7c.4.4,1,.9,1.5,1.1s1.2.6,1.5.8c.9.6,3.6,1.5,4.7,1.5,1.7,0,2.1-1,2.2-4.2,0-1.9,0-2.5-.4-3.7-.3-1.2-.4-1.8-.4-3.4s0-2.1.6-3.5c-3.3-11.9,2.8-23.3,2.4-33.6,0-1.4-.2-3.6-.2-5s0-3.7.1-5.3c.1-1.5.2-3.7.2-4.7s.1-3.1.3-4.7c.2-2,.3-3.5.2-5.7-.7-16.4,1-35.4.4-46.2,1.1-6.1-1-15.6,1.2-20.5,3.9-5.9,11.1-5.4,16.6-5.8,5.7-2.2,19.5.6,15.7-10.1-.4-1.1-.8-2.2-.8-2.6,0-.7.5-1.6,1.3-2,.4-.3.6-.6.8-1.2.3-1.2.6-1.6,2-3s2-1.9,2.8-2.7,2.3-2.1,3.3-2.9c11.9-14.7,25.6-26.3,33.4-45.1,1.8-4.5,2.2-5.5,2.2-6.4-1.2-6.8-6.6-17.1-12.5-23-.5-.5-1.3-1.2-1.7-1.7-1.2-1.3-2.5-2-4.4-2.1-.9,0-2.1-.3-2.8-.5-1.5-.5-5.1-.6-6-.1-.6.3-2.6,2.3-3.3,3.2-.7,1-1.2,2.5-1.3,4.2-3.6,21.7-6.4,50.7-16.1,70.4-.2.3-.6,1.5-.9,2.7-.6,2.3-1,3.2-1.7,3.9-.4.4-.7.4-2.3.4s-2.1,0-3.1.3c-.8.2-2,.6-2.9.7-.8.2-2.9.8-4.7,1.3-1.7.6-3.9,1.2-4.7,1.3-.8.2-1.8.5-2.1.7-2.3,1.5-3.6.8-5.6-2.9-.8-1.5-1.1-2.6-1.8-7.4-.2-1.4-.6-3.8-.8-5.3-.6-4.1-.4-5.2,1.3-7,1.2-1.2,2.4-2.8,4.3-5.2,1.8-2.4,2.3-2.5,3.8-.1.9,1.5,1.7,1.9,3.5,1.9s1.4,0,1.5-.1c0,0,.7-.2,1.4-.3,4.5-.7,6-4.5,9.3-7.9,1.2-1.1,1.4-2.5.9-4.1-.2-.6-.5-1-1-1.3-.4-.2-1.6-.9-2.6-1.5-2.3-1.3-5-2.1-9.1-2.7-2.5-.4-3-.5-3.8-1s-1-.6-2-.5-1.2,0-2.2-.6c-.7-.4-1.3-1-1.7-1.6l-.7-.9-.2.5c0,.3-.2.8-.3,1-.1.7-1,2.1-1.3,2.2-1.1-3.9-1.7-15.4-.9-20.9.4-2.1.9-3.7,1.6-4.6,5.3-5.2,14.7-4.8,18.6-4.9,10.2-.2,11.9-.5,16.1-2.5,1.8-.8,2.8-1.7,4.6-4,.8-1.1,2-2.4,2.6-3,1.4-1.5,1.9-2.9,2.8-7.2.3-1.5.3-1.6-1-3.7-1.3-2.1-2.4-2.4-6.3-2-5.5.7-11.3,3.1-15.2,3.9-3.8.8-10.3,2.5-12,3.2-.6.3-2.1.8-3.3,1.2s-2.7,1-3.3,1.4c-2.2,1.2-3.7.8-4.4-1.1-.4-.8-.4-1.2-.4-4,.1-3.5-1-7.6,0-10.6.4-1.1.5-1.7.7-5.1.2-3.6.5-6.6,1.5-14.1.2-5.5,1.3-11.4,1.3-15.3s0-3.8-.4-5.6c-.3-1.1-.5-2.7-.6-3.6-.3-2.5-.6-3.6-2-7.2-3.8-6.9-10.4-11.9-17.7-15.5-1.7-.8-11.4-4.1-13.6-4.6-.4,0-1.1-.3-1.6-.4-1.2-.4-2.3-.3-3.1,0h0Z"/>
    <path id="path4" d="M363.4,92.9c-1.5.5-2.2,1.5-2.8,3.9-.7,2.8-.9,4.8-.7,6.6.3,2.2.7,3.6,1.6,4.9,4.1,5,8.2,12.2,12.6,14.9.8.5,1.8,1.2,2.3,1.7,2,1.8,4.1,2.6,7.4,2.6s2,0,3-.7c.6-.4,1.6-1.3,2.2-2s1.8-1.8,2.6-2.5c1.9-1.5,2.3-2.4,2.4-4.7-1.4-7-5.9-12.3-6.6-17.1-1.9-2.7-.9-1.7-2.8-3.6-3.2-2-5.6-3.7-8.5-4-5.3-2.5-7.5-1.8-12.7-.2,0,0,0,.2,0,.2Z"/>
    <path id="path6" d="M379.1,159.1c-.6.2-5.2,4.3-7.2,6.3-1.3,1.4-1.9,1.8-4.4,2.9-2.1.9-3,1.5-6.1,3.6-.6.4-1.8,1-2.7,1.3-.9.3-1.9.8-2.3,1-1,.7-5.6,2.3-7.7,2.8-16,2.2-31.4,13.4-47.2,14.3-1.8,0-3.3.1-3.3.1,0,0-.3.5-.6,1-.7,1.2-1.1,3.2-.9,4.7.2,1.9.8,3.1,2.2,4.4.7.6,1.6,1.6,2.1,2.1,1.1,1.2,2,1.8,4.5,3,3,1.4,3.4,1.6,5.3,1.5,1.9,0,4.4-.7,7.1-2,1.8-.8,2.3-1.2,3.7-2.7,11.7-5.5,16.7-14.3,28.8-16.8.4,0,1.1-.3,1.6-.5s1.2-.4,1.6-.5c.4,0,1.6-.4,2.7-.8,3.9-1.4,6.8-2.2,7.9-2.2s1.4-.2,2.4-.6c2.9-1.3,5.4-.5,5.1,1.8-.1,1-.8,2-1.9,3.1-1.3,1.1-2,2.1-3.7,4.7-1.8,2.8-2,3.2-2.5,4.6-1.4,3.3-3.3,5.2-4.9,8.5-5.3,6.9-11.6,16.6-17.2,20.3-1.8,1.2-3.6,3.2-4.4,5s-1.8,3.5-3.4,5.6c-.7,1-1.5,2.3-1.8,3-.7,1.5-3.4,5.2-4.7,6.4-.5.5-1.5,1.7-2.1,2.5-.6.9-1.9,2.6-2.8,3.9-1,1.2-2,2.7-2.3,3.2-.8,1.3-1.4,2-2.5,2.7-.6.4-1.7,1.3-2.5,2.2-.8.9-2.1,2.2-3,3-1.9,1.8-2.2,2.2-3.3,4.4-1.4,3.1-1.3,4,.3,2.1,1.5-1.7,2.8-3,5.9-5.7,1.5-1.4,3.7-3.5,4.9-4.7,3.4-3.6,3.9-4,6.1-4.2,1.1-.2,1.5-.3,2-.8,1.1-1,1.4-1.2,3.4-1.7,2.1-.6,2.8-1,4.7-2.7,1.6-1.5,2.7-2.1,4.6-2.6.8-.2,2.1-.6,2.8-.7.8-.2,1.9-.7,2.9-1.4.9-.6,2.5-1.4,3.5-1.9,2.2-.9,2.7-1.3,4.5-2.9,1.8-1.6,3-3.1,4.8-5.6.8-1.2,2.3-3.2,3.4-4.5,1.5-1.9,2.3-2.7,3.9-3.9,2.3-1.8,3.9-3.2,6.2-5.6.9-.9,2.1-2.2,2.7-2.8s1.9-2,2.9-3c1-1.1,2.5-2.5,3.3-3.3s1.9-2.1,2.5-3c1.3-2,3.1-4,4.9-5.4,1.4-1.1,5.3-5.5,9.4-10.6,2.5-3.2,4.5-5.3,6.3-6.8.8-.6,1.6-1.4,1.7-1.6.6-.8.8-1.9.8-4.2,0-3.4-.2-4.4-1.7-7.4-.4-.8-.9-1.8-1-2.2-.2-.4-.7-1.2-1.1-1.8-.8-1.1-4.1-3.4-5.4-4-1.2-.5-3.7-.8-5.9-.6-2.6.1-3.2,0-5.6-2-1.5-1.3-2.2-1.7-2.9-1.8-1.1-.3-4.1-.4-4.6-.3l.2-.2h0Z"/>
    <path id="path8" d="M384.5,217.8c-.5.6-.7,1.9-.6,3.3.2,1.6,1.1,5.4,1.5,6.3.5,1.1,2.5,3.1,5.4,5.6,2.1,1.8,2.2,1.8,3.8,2.2,2.2.5,2.5.8,3.2,3,.3,1,.7,2,.8,2.4.5,1.3,1.6,2,2.8,2,1.8,0,3.3-1.5,3.7-3.7.1-.7.4-2.3.7-3.6.3-1.3.7-3.5,1-4.9s.6-2.9.7-3.4c.4-1.3.3-2.8-.1-4-.5-1.2-1.7-2.1-3.4-2.6-.7-.2-2.5-.8-4-1.5-3.4-1.4-4.5-1.6-10.4-1.7h-4.7c0-.1-.4.4-.4.4v.2Z"/>
    <path id="path10" d="M361.5,236.1c-.5.3-1.2,1.4-1.4,2.4-.1.5-.3,1.9-.3,3.1-.1,1.3-.4,3-.6,3.9-1,4-1,5.7,0,10.2.5,2.5.6,3.1.7,6.2,0,3.9,0,5.3-1,10.4-.5,2.5-.7,4.4-.8,6.1-.6,4.9-1.1,9.9-1.2,13.1-.2,5.9,0,9,.4,11.1.7,2.5,1.6,4.6,2.3,7.2.6,2.2,1.9,4.9,3.2,6.7.7.9,1.5,2.2,1.7,2.8.9,2,2.2,3.3,3.7,3.6,1.1.3,2.9-.6,4.3-2,2.5-1,3.4-3.1,5.1-4.1,1.8-1,2.4-1.8,3.2-4,.7-1.9.8-3,.5-5.5-.2-1.6-.3-3.4-.3-8.2s-.1-6.5-.3-8c-.5-3.2-.6-4-.8-7.7-.3-5.4-2.4-10.9-2.8-15.1-.1-1.1-.3-2.7-.4-3.4s-.3-1.9-.3-2.6c-.3-3.2-1.7-11.3-2.2-12.8-.2-.4-.4-1.7-.6-2.9-.5-3.1-.8-4.2-1.5-5.5-1.2-2.2-2.3-2.9-4.7-2.9s-2.3-.2-3.6-1.3c-1-.8-1.8-1.1-2.4-.8h0Z"/>
  </g>
  <g>
    <path class="st0" d="M484.4,504.2h-38.9v-59.5h38.9v10.3h-26.3v13.1h24.1v10.4h-24v15.3h26.2c0-.1,0,10.5,0,10.5h0Z"/>
    <path class="st0" d="M543.9,504.2h-13.6l-25.3-44.5h-.4c.1,1.8.2,3.3.4,5.2.1,1.8.1,3.8.2,5.7.1,1.8.1,3.8.2,5.7l1.1,28h-11.7v-59.5h15.2l25.1,45.4h-3v-45.4h11.8v59.5h0Z"/>
    <path class="st0" d="M434.6,504.2h-12.6v-25.7h-24.1v25.7h-12.6v-59.5h12.6v23.4h24.1v-23.4h12.6v59.5h0Z"/>
    <path class="st0" d="M374.3,488.2c0,3.5-.8,6.6-2.5,9.1-1.7,2.6-4.1,4.6-7.3,6-3.4,1.5-8.1,2.2-12.6,2.1-5.4,0-10.9-1.3-15.8-3.6v-11.7c2.7,1.3,5.7,2.3,8.7,3.4,3,1,5.9,1.5,8.9,1.5s3.7-.2,4.9-.8c1.3-.6,2.2-1.3,2.7-2.2.6-.9.9-2.1.9-3.2s-.5-2.8-1.5-3.8-2.4-2.1-4.1-3-3.7-1.8-5.8-3c-1.4-.7-2.8-1.5-4.4-2.4s-3.1-2.1-4.6-3.5-2.6-3-3.6-5c-.9-2-1.4-4.3-1.4-6.9s.8-6.6,2.4-9.1,3.9-4.5,6.8-5.8c3-1.4,6.5-2,10.6-2s5.9.4,8.8,1c2.7.7,5.7,1.7,8.7,3.1l-4,9.8c-2.7-1.2-5.1-2-7.2-2.5s-4.3-.9-6.6-.9-2.8.2-4,.7c-1.1.5-1.9,1.2-2.5,2.1s-.9,2-.9,3.1.5,2.5,1.3,3.6c.8,1,2.1,1.8,3.7,2.8,1.6.9,3.7,2,6.2,3.1,3,1.4,5.6,2.9,7.6,4.5,2.1,1.5,3.8,3.4,4.9,5.6s1.6,4.9,1.6,8h0Z"/>
  </g>
</svg>